<svg width="281" height="281" viewBox="0 0 281 281" fill="none" xmlns="http://www.w3.org/2000/svg">
<g clip-path="url(#clip0_3_1669)">
<path d="M280.528 134.998C280.528 129.155 279.904 123.381 278.637 117.676C278.578 117.027 278.573 116.373 278.45 115.734C274.636 95.6158 266.779 77.2073 254.965 60.4991C248.336 51.1327 240.807 42.5623 231.917 35.255C231.333 34.6947 230.777 34.1001 230.158 33.589C205.553 13.3033 177.35 2.33979 145.462 1.01788C136.553 0.649315 127.663 1.04245 118.872 2.74275C118.14 2.80172 117.397 2.80172 116.68 2.93441C97.9078 6.47753 80.2709 12.9741 64.3342 23.6378C30.2052 46.4691 9.089 78.0623 2.16001 118.56C-2.50845 145.849 1.0789 172.321 12.642 197.659C38.864 255.115 101.815 293.043 169.999 277.318C224.664 264.708 259.835 229.974 276.066 176.287C280.126 162.861 281.221 148.998 280.528 134.998ZM265.82 173.338C250.965 221.163 220.187 253.833 171.291 265.735C116.803 278.993 71.73 261.199 37.2227 217.345C19.34 194.622 10.3028 168.37 10.8335 139.337C11.497 103.243 25.5859 72.755 51.4246 47.8107C68.9289 30.9108 89.7454 19.7851 113.594 14.527C113.903 14.4582 114.189 14.2911 114.488 14.1682C114.626 14.296 114.768 14.3943 114.916 14.468C115.048 14.3009 115.191 14.1584 115.343 14.0503C121.211 13.2542 127.054 12.232 132.98 11.9126C166.687 10.1238 196.447 20.2471 222.561 41.4861C230.979 48.3316 238.463 56.1549 244.753 64.8825C257.717 82.8881 266.607 102.712 269.329 125.007C270.312 133.027 270.44 141.052 270.204 149.102H270.189C270.189 149.102 270.145 149.126 270.12 149.146C270.145 149.18 270.169 149.215 270.199 149.244C269.309 157.382 268.258 165.5 265.82 173.338Z" fill="white" style="fill:white;fill-opacity:1;"/>
<path d="M249.442 139.357C213.711 103.906 177.96 68.4746 142.263 32.9894C140.887 31.6232 140.209 31.3873 138.686 32.9107C112.577 59.0001 86.399 85.0207 60.231 111.056C50.781 120.457 41.3163 129.848 31.8565 139.244C30.7312 139.956 29.8073 140.698 31.4536 141.838C32.9032 143.219 34.3529 144.595 35.8026 145.976C36.4611 146.694 37.0901 147.441 37.7781 148.129C71.3026 181.476 104.852 214.809 138.332 248.211C139.983 249.857 140.779 250.186 142.632 248.329C161.807 229.095 181.115 209.988 200.364 190.823C208.3 182.921 216.173 174.96 224.075 167.024C232.714 158.547 241.338 150.055 250.007 141.612C251.279 140.369 250.036 139.951 249.442 139.357ZM145.806 228.235V205.659C145.797 197.555 145.797 189.447 145.787 181.343V181.162C145.782 176.97 145.782 172.783 145.772 168.596C145.772 168.596 145.772 168.593 145.772 168.586C145.772 168.586 145.777 168.572 145.772 168.567C145.777 168.562 145.772 168.557 145.772 168.557C145.777 168.552 145.772 168.547 145.772 168.547C145.777 168.542 145.772 168.537 145.772 168.537C145.777 168.527 145.777 168.522 145.772 168.517C145.777 168.508 145.777 168.503 145.772 168.498C145.777 168.498 145.772 168.488 145.772 168.488C145.777 168.478 145.777 168.463 145.772 168.458C145.777 168.444 145.777 168.429 145.772 168.419C145.767 163.765 145.762 159.112 145.752 154.458V154.409C145.752 152.537 145.747 150.669 145.743 148.797V148.595C145.743 147.362 145.797 146.62 147.58 146.625C165.041 146.679 182.501 146.689 199.956 146.694H200.103C208.777 146.694 217.45 146.694 226.124 146.699C226.428 146.699 226.733 146.753 227.588 146.826C200.457 174.218 173.419 201.089 145.806 228.235ZM145.826 53.8992C146.917 54.2284 147.492 55.0295 148.151 55.6732C157.099 64.4401 166.033 73.2267 174.977 81.9985C175.557 82.5685 176.186 83.0845 176.79 83.6251C177.08 83.9101 177.37 84.1902 177.66 84.4703C178.707 85.7873 179.881 86.9814 181.233 87.9888C181.395 88.4213 181.69 88.721 182.127 88.8734C182.348 89.3697 182.702 89.7285 183.203 89.9349C187.213 94.0038 191.184 98.1071 195.233 102.137C203.976 110.825 212.757 119.479 221.519 128.143C221.711 128.634 222.05 128.983 222.541 129.175C222.704 129.636 223.013 129.951 223.475 130.113C223.667 130.609 224.006 130.953 224.502 131.145C224.669 131.602 224.979 131.912 225.436 132.079C225.976 132.762 226.517 133.44 227.048 134.108C226.527 134.762 225.908 134.482 225.387 134.482C199.759 134.487 174.127 134.452 148.499 134.506C146.475 134.511 145.738 134.226 145.748 131.907C145.787 118.924 145.792 105.935 145.782 92.9522V92.8146C145.816 91.0307 145.856 89.2665 145.944 87.4827C146.023 85.8168 145.895 84.1312 145.777 82.4407C145.777 82.4407 145.777 82.4375 145.777 82.4309C145.777 82.4309 145.772 82.426 145.777 82.4211V82.308C145.767 73.2905 145.752 64.2779 145.748 55.2604C145.748 54.8673 145.792 54.4692 145.826 53.8992ZM134.101 54.8083C134.406 55.3734 134.514 56.0221 134.484 56.7986C134.469 57.1769 134.445 57.688 134.568 58.0812V63.5408C134.199 64.1403 134.479 65.0003 134.479 65.649C134.425 87.92 134.435 110.191 134.435 132.462C134.435 132.826 134.455 133.185 134.499 133.529C134.347 134.158 133.904 134.531 132.632 134.526C107.019 134.447 81.4062 134.472 55.7886 134.472H53.9261C80.6789 107.606 107.048 81.2613 134.101 54.8083ZM134.578 226.465C134.578 226.682 134.504 226.893 134.391 227.547C107.147 200.867 80.4725 174.066 53.4642 146.674H67.6956C89.2197 146.674 110.749 146.684 132.278 146.659C133.723 146.659 134.637 146.6 134.632 148.62C134.553 174.567 134.582 200.514 134.578 226.465Z" fill="white" style="fill:white;fill-opacity:1;"/>
<path d="M101.5 224.367C96.1831 224.387 90.861 224.421 85.5439 224.303C69.3369 223.935 57.7001 212.175 57.4987 195.993C57.4348 190.675 57.479 185.358 57.4594 180.036C57.4594 179.24 57.6166 178.395 56.9385 177.732C53.8032 174.675 50.6827 171.613 47.1887 168.193C47.6212 178.547 46.943 188.366 47.6015 198.179C48.9726 218.529 64.2802 233.586 84.6446 234.22C93.8832 234.505 103.137 234.304 112.385 234.313C112.749 234.313 113.216 234.451 113.451 233.851C110.513 231.075 107.53 228.298 104.601 225.463C103.702 224.588 102.709 224.362 101.5 224.367Z" fill="white" style="fill:white;fill-opacity:1;"/>
<path d="M179.685 57.4522C184.845 57.3932 190 57.3686 195.155 57.4718C209.887 57.7568 222.084 68.8039 223.686 83.4629C224.325 89.3255 223.804 95.2422 223.893 101.129C223.903 101.935 223.622 102.825 224.178 103.518C227.087 107.105 230.478 110.211 233.962 113.346C233.834 102.53 234.94 91.8121 233.323 81.1827C230.714 63.9929 217.362 50.2873 200.929 48.1201C189.96 46.6704 178.908 47.9039 167.896 47.442C170.721 50.4347 173.404 53.1965 175.989 56.0418C177.031 57.1868 178.206 57.4718 179.685 57.4522Z" fill="white" style="fill:white;fill-opacity:1;"/>
<path d="M56.1767 104.368C57.1644 103.351 57.474 102.245 57.4495 100.849C57.3659 96.1858 57.361 91.5222 57.3954 86.8587C57.5281 70.1308 69.73 57.7766 86.4726 57.467C91.544 57.3785 96.6155 57.4817 101.687 57.4768C102.414 57.4768 103.427 57.6537 103.825 57.2655C107.019 54.0958 110.1 50.8181 113.147 47.6337C103.5 47.6337 93.7554 47.2209 84.0548 47.7221C64.8502 48.7197 49.6851 63.5212 47.6899 82.6669C46.6383 92.7852 47.5032 102.938 47.6457 113.376C50.4861 110.368 53.297 107.336 56.1767 104.368Z" fill="white" style="fill:white;fill-opacity:1;"/>
<path d="M233.903 184.842C233.986 179.417 233.923 173.992 233.923 167.952C230.807 171.161 227.878 173.702 225.421 176.719C224.001 177.574 223.662 178.862 223.657 180.464C223.647 187.093 224.286 193.771 223.387 200.342C221.529 213.92 210.502 223.709 196.658 224.279C190.855 224.519 185.036 224.328 179.223 224.338C178.338 224.343 177.449 224.185 176.707 224.957C173.734 228.038 170.721 231.085 167.444 234.431C178.559 234.156 189.341 234.854 200.108 233.96C201.568 233.842 203.027 233.537 204.457 233.213C220.522 229.552 233.225 214.524 233.416 198.981C233.51 198.754 233.608 198.538 233.608 198.283V197.87C234.271 193.545 233.839 189.182 233.903 184.842Z" fill="white" style="fill:white;fill-opacity:1;"/>
</g>
<defs>
<clipPath id="clip0_3_1669">
<rect width="280.55" height="280" fill="white" style="fill:white;fill-opacity:1;" transform="translate(0.174805 0.890015)"/>
</clipPath>
</defs>
</svg>
